<?xml version="1.0" encoding="utf-8"?>
<svg width="406.0951px" height="214.63739px" viewBox="0 0 406.0951 214.63739" version="1.1" xmlns:xlink="http://www.w3.org/1999/xlink" xmlns="http://www.w3.org/2000/svg">
  <defs>
    <linearGradient gradientUnits="userSpaceOnUse" x1="9.506124" y1="152.71922" x2="119.86836" y2="-33.904568" id="gradient_1">
      <stop offset="0%" stop-color="#2B3990" />
      <stop offset="21.08%" stop-color="#1C75BC" />
      <stop offset="66.149994%" stop-color="#27AAE1" />
      <stop offset="100%" stop-color="#00AEEF" />
    </linearGradient>
    <linearGradient gradientUnits="userSpaceOnUse" x1="282.3838" y1="223.5351" x2="72.81718" y2="72.66566" id="gradient_2">
      <stop offset="0%" stop-color="#2B3990" />
      <stop offset="15.67%" stop-color="#1C75BC" />
      <stop offset="66.149994%" stop-color="#27AAE1" />
      <stop offset="100%" stop-color="#00AEEF" />
    </linearGradient>
    <linearGradient gradientUnits="userSpaceOnUse" x1="80.01325" y1="80.06245" x2="2.820795" y2="2.8703911" id="gradient_3">
      <stop offset="66.149994%" stop-color="#27AAE1" />
      <stop offset="100%" stop-color="#00AEEF" />
    </linearGradient>
  </defs>
  <g id="Grup">
    <path d="M278.335 109.173C286.274 120.528 299.452 127.979 314.329 127.979C327.934 127.979 340.05 121.805 348.059 112.149L406.095 11.5855C364.783 -12.3312 311.494 2.00713 287.687 43.3117L264.02 84.3312L278.335 109.173L278.335 109.173Z" id="Şekil" fill="url(#gradient_1)" fill-rule="evenodd" stroke="none" />
    <path d="M314.329 127.979C299.448 127.979 286.27 120.524 278.335 109.173L264.02 84.3312L232.204 29.1179L227.952 21.6676C222.282 11.8745 213.356 5.13093 203.297 2.01103C199.115 0.659982 194.793 0.0235062 190.47 0.0235062L190.4 0.0235062L190.256 0.0235062C186.003 0.0235062 181.681 0.659982 177.428 2.01103C167.436 5.13484 158.436 11.8745 152.84 21.6676L148.588 29.1179L116.702 84.3351L102.387 109.177C94.4483 120.532 81.2697 127.983 66.3926 127.983C52.8587 127.983 40.6719 121.809 32.6633 112.153L66.6776 171.13L66.9588 171.7L79.2197 192.989C91.1956 213.641 117.768 220.814 138.459 208.819C144.339 205.41 149.158 200.799 152.7 195.476L155.534 190.509L190.4 130.115L225.191 190.509L228.026 195.476C231.642 200.802 236.39 205.41 242.337 208.819C262.958 220.814 289.604 213.645 301.506 192.989L313.767 171.7L314.048 171.13L348.063 112.153C340.054 121.805 327.937 127.979 314.329 127.979L314.329 127.979L314.329 127.979Z" id="Şekil" fill="url(#gradient_2)" fill-rule="evenodd" stroke="none" />
    <path d="M42.8704 0.0195999C66.463 0.0195999 85.7369 19.3247 85.7369 42.9564C85.7369 66.588 66.463 85.8267 42.8704 85.8267C19.2739 85.8267 0 66.5919 0 42.9564C-4.65484e-06 19.3247 19.2739 0.0195999 42.8704 0.0195999L42.8704 0.0195999L42.8704 0.0195999Z" id="Şekil" fill="url(#gradient_3)" fill-rule="evenodd" stroke="none" />
  </g>
</svg>