<svg xmlns="http://www.w3.org/2000/svg" xmlns:xlink="http://www.w3.org/1999/xlink" version="1.1" id="Layer_1"  x="0px" y="0px" width="272px" height="63px" viewBox="0 0 272 63" overflow="scroll" xml:space="preserve"><g> <g> <g> <path fill="#77838F" d="M115.919,58.911v0.516c0,0.08-0.026,0.146-0.078,0.198c-0.052,0.052-0.118,0.078-0.198,0.078h-0.504				c-0.08,0-0.146-0.026-0.198-0.078c-0.052-0.052-0.078-0.118-0.078-0.198v-7.968c0-0.088,0.026-0.156,0.078-0.204				c0.052-0.048,0.118-0.072,0.198-0.072h0.54c0.08,0,0.146,0.026,0.198,0.078c0.052,0.053,0.078,0.118,0.078,0.198v2.771				c0.448-0.592,1.096-0.888,1.944-0.888c0.84,0,1.47,0.274,1.89,0.822s0.642,1.234,0.666,2.058c0.008,0.088,0.012,0.208,0.012,0.36				s-0.004,0.271-0.012,0.36c-0.024,0.823-0.246,1.51-0.666,2.058s-1.05,0.822-1.89,0.822				C117.035,59.823,116.375,59.519,115.919,58.911z M118.931,58.347c0.264-0.359,0.408-0.832,0.432-1.416				c0.008-0.08,0.012-0.195,0.012-0.348c0-1.536-0.568-2.304-1.704-2.304c-0.544,0-0.962,0.178-1.254,0.533				c-0.292,0.356-0.446,0.778-0.462,1.267c-0.008,0.088-0.012,0.244-0.012,0.468c0,0.216,0.004,0.368,0.012,0.456				c0.016,0.512,0.166,0.954,0.45,1.326c0.284,0.372,0.706,0.558,1.266,0.558C118.247,58.887,118.667,58.707,118.931,58.347z"/>			<path fill="#77838F" d="M122.663,61.911c-0.048-0.048-0.072-0.104-0.072-0.168c0-0.024,0.02-0.097,0.06-0.216l0.936-2.196				l-2.292-5.412c-0.048-0.096-0.072-0.164-0.072-0.204c0.008-0.072,0.036-0.132,0.084-0.18s0.104-0.072,0.168-0.072h0.552				c0.128,0,0.224,0.064,0.288,0.192l1.848,4.416l1.896-4.416c0.064-0.128,0.16-0.192,0.288-0.192h0.54				c0.064,0,0.12,0.024,0.168,0.072c0.048,0.048,0.072,0.104,0.072,0.168c0,0.056-0.02,0.128-0.06,0.216l-3.396,7.872				c-0.04,0.063-0.082,0.111-0.126,0.144s-0.102,0.048-0.174,0.048h-0.528C122.771,61.982,122.711,61.959,122.663,61.911z"/>			<path fill="#77838F" d="M132.761,59.625c-0.052-0.052-0.078-0.118-0.078-0.198v-7.092h-2.316c-0.08,0-0.146-0.026-0.198-0.078				s-0.078-0.118-0.078-0.198v-0.468c0-0.088,0.026-0.158,0.078-0.21s0.118-0.078,0.198-0.078h5.76c0.088,0,0.156,0.026,0.204,0.078				s0.072,0.122,0.072,0.21v0.468c0,0.08-0.026,0.146-0.078,0.198c-0.052,0.052-0.118,0.078-0.198,0.078h-2.304v7.092				c0,0.08-0.028,0.146-0.084,0.198c-0.056,0.052-0.125,0.078-0.204,0.078h-0.576C132.879,59.703,132.813,59.677,132.761,59.625z"/>			<path fill="#77838F" d="M136.979,59.061c-0.488-0.508-0.756-1.201-0.804-2.082l-0.012-0.407l0.012-0.396				c0.048-0.864,0.316-1.552,0.804-2.063c0.488-0.513,1.14-0.769,1.957-0.769c0.879,0,1.562,0.28,2.045,0.84				c0.484,0.561,0.727,1.32,0.727,2.28v0.216c0,0.08-0.025,0.146-0.078,0.198s-0.118,0.078-0.197,0.078h-4.164v0.107				c0.023,0.521,0.184,0.965,0.479,1.332c0.296,0.368,0.688,0.553,1.176,0.553c0.376,0,0.683-0.074,0.918-0.223				c0.235-0.147,0.414-0.302,0.534-0.462c0.072-0.096,0.128-0.153,0.168-0.174c0.04-0.02,0.107-0.03,0.204-0.03h0.528				c0.072,0,0.133,0.021,0.186,0.061c0.052,0.04,0.078,0.092,0.078,0.155c0,0.177-0.107,0.389-0.324,0.637				c-0.216,0.248-0.521,0.462-0.918,0.642s-0.85,0.271-1.361,0.271C138.119,59.823,137.467,59.569,136.979,59.061z M140.615,56.139				v-0.036c0-0.56-0.152-1.016-0.456-1.367c-0.304-0.353-0.712-0.528-1.224-0.528c-0.521,0-0.929,0.176-1.225,0.528				c-0.296,0.352-0.443,0.808-0.443,1.367v0.036H140.615z"/>			<path fill="#77838F" d="M143.261,59.625c-0.052-0.052-0.078-0.118-0.078-0.198v-7.968c0-0.088,0.026-0.156,0.078-0.204				s0.118-0.072,0.198-0.072h0.516c0.08,0,0.146,0.026,0.197,0.078c0.053,0.053,0.078,0.118,0.078,0.198v4.188l2.4-1.979				c0.12-0.088,0.204-0.145,0.252-0.168c0.049-0.024,0.124-0.036,0.229-0.036h0.6c0.072,0,0.13,0.022,0.174,0.066				s0.066,0.105,0.066,0.186c0,0.072-0.045,0.148-0.133,0.229l-2.808,2.304l3.108,2.976c0.088,0.088,0.132,0.164,0.132,0.229				c0,0.071-0.022,0.132-0.065,0.18c-0.045,0.048-0.103,0.072-0.175,0.072h-0.588c-0.12,0-0.206-0.013-0.258-0.036				c-0.052-0.024-0.126-0.08-0.222-0.168l-2.713-2.568v2.496c0,0.08-0.025,0.146-0.078,0.198c-0.051,0.052-0.117,0.078-0.197,0.078				h-0.516C143.379,59.703,143.313,59.677,143.261,59.625z"/>			<path fill="#77838F" d="M149.404,59.625c-0.052-0.052-0.078-0.118-0.078-0.198v-5.688c0-0.08,0.026-0.146,0.078-0.198				c0.053-0.052,0.118-0.078,0.198-0.078h0.517c0.088,0,0.156,0.024,0.203,0.072c0.049,0.048,0.072,0.116,0.072,0.204v0.527				c0.24-0.296,0.518-0.523,0.834-0.684s0.71-0.24,1.182-0.24c0.769,0,1.364,0.246,1.789,0.738c0.424,0.492,0.636,1.142,0.636,1.95				v3.396c0,0.08-0.026,0.146-0.078,0.198s-0.118,0.078-0.198,0.078h-0.552c-0.08,0-0.146-0.026-0.198-0.078				c-0.052-0.052-0.078-0.118-0.078-0.198v-3.324c0-0.575-0.14-1.023-0.42-1.344c-0.279-0.319-0.68-0.479-1.199-0.479				c-0.513,0-0.92,0.161-1.225,0.485s-0.456,0.771-0.456,1.338v3.324c0,0.08-0.026,0.146-0.078,0.198s-0.118,0.078-0.198,0.078				h-0.552C149.522,59.703,149.457,59.677,149.404,59.625z"/>			<path fill="#77838F" d="M157.072,59.079c-0.477-0.496-0.73-1.156-0.762-1.98l-0.012-0.516l0.012-0.517				c0.031-0.823,0.289-1.483,0.773-1.979s1.158-0.744,2.022-0.744s1.538,0.248,2.022,0.744c0.483,0.496,0.741,1.156,0.773,1.979				c0.016,0.177,0.023,0.349,0.023,0.517s-0.008,0.34-0.023,0.516c-0.032,0.824-0.286,1.484-0.762,1.98				c-0.477,0.496-1.154,0.744-2.034,0.744S157.549,59.575,157.072,59.079z M160.324,58.437c0.301-0.323,0.462-0.79,0.486-1.397				c0.008-0.08,0.012-0.232,0.012-0.456s-0.004-0.376-0.012-0.456c-0.024-0.608-0.186-1.074-0.486-1.398				c-0.3-0.323-0.706-0.485-1.218-0.485c-0.513,0-0.918,0.162-1.218,0.485c-0.301,0.324-0.463,0.79-0.486,1.398l-0.012,0.456				l0.012,0.456c0.023,0.607,0.186,1.074,0.486,1.397c0.3,0.324,0.705,0.486,1.218,0.486				C159.618,58.923,160.024,58.761,160.324,58.437z"/>			<path fill="#77838F" d="M163.528,59.625c-0.052-0.052-0.078-0.118-0.078-0.198v-7.968c0-0.088,0.026-0.156,0.078-0.204				s0.118-0.072,0.198-0.072h0.527c0.08,0,0.146,0.026,0.198,0.078c0.052,0.053,0.078,0.118,0.078,0.198v7.968				c0,0.08-0.026,0.146-0.078,0.198s-0.118,0.078-0.198,0.078h-0.527C163.646,59.703,163.58,59.677,163.528,59.625z"/>			<path fill="#77838F" d="M166.828,59.079c-0.477-0.496-0.73-1.156-0.762-1.98l-0.012-0.516l0.012-0.517				c0.031-0.823,0.289-1.483,0.773-1.979s1.158-0.744,2.022-0.744s1.538,0.248,2.022,0.744c0.483,0.496,0.741,1.156,0.773,1.979				c0.016,0.177,0.023,0.349,0.023,0.517s-0.008,0.34-0.023,0.516c-0.032,0.824-0.286,1.484-0.762,1.98				c-0.477,0.496-1.154,0.744-2.034,0.744S167.305,59.575,166.828,59.079z M170.08,58.437c0.301-0.323,0.462-0.79,0.486-1.397				c0.008-0.08,0.012-0.232,0.012-0.456s-0.004-0.376-0.012-0.456c-0.024-0.608-0.186-1.074-0.486-1.398				c-0.3-0.323-0.706-0.485-1.218-0.485c-0.513,0-0.918,0.162-1.218,0.485c-0.301,0.324-0.463,0.79-0.486,1.398l-0.012,0.456				l0.012,0.456c0.023,0.607,0.186,1.074,0.486,1.397c0.3,0.324,0.705,0.486,1.218,0.486				C169.374,58.923,169.78,58.761,170.08,58.437z"/>			<path fill="#77838F" d="M171.97,61.905c-0.048-0.053-0.071-0.118-0.071-0.198v-0.384c0-0.08,0.023-0.145,0.071-0.192				s0.112-0.072,0.192-0.072h0.168c0.392,0,0.654-0.102,0.785-0.306c0.133-0.204,0.199-0.502,0.199-0.895v-6.119				c0-0.088,0.025-0.156,0.078-0.204c0.051-0.048,0.117-0.072,0.197-0.072h0.54c0.08,0,0.146,0.026,0.198,0.078				c0.052,0.052,0.078,0.118,0.078,0.198v6.132c0,1.408-0.672,2.111-2.016,2.111h-0.229				C172.082,61.982,172.018,61.957,171.97,61.905z M173.284,52.209c-0.052-0.052-0.078-0.118-0.078-0.198v-0.624				c0-0.08,0.026-0.147,0.078-0.204c0.052-0.056,0.118-0.084,0.198-0.084h0.744c0.079,0,0.145,0.028,0.197,0.084				c0.053,0.057,0.078,0.124,0.078,0.204v0.624c0,0.08-0.025,0.146-0.078,0.198s-0.118,0.078-0.197,0.078h-0.744				C173.402,52.287,173.336,52.261,173.284,52.209z"/>			<path fill="#77838F" d="M176.2,52.209c-0.052-0.052-0.077-0.118-0.077-0.198v-0.624c0-0.08,0.025-0.147,0.077-0.204				c0.052-0.056,0.118-0.084,0.198-0.084h0.708c0.079,0,0.147,0.028,0.204,0.084c0.056,0.057,0.084,0.124,0.084,0.204v0.624				c0,0.08-0.028,0.146-0.084,0.198c-0.057,0.052-0.125,0.078-0.204,0.078h-0.708C176.318,52.287,176.252,52.261,176.2,52.209z				 M176.297,59.625c-0.053-0.052-0.078-0.118-0.078-0.198v-5.688c0-0.08,0.025-0.146,0.078-0.198				c0.051-0.052,0.117-0.078,0.197-0.078h0.528c0.079,0,0.146,0.026,0.198,0.078c0.052,0.052,0.078,0.118,0.078,0.198v5.688				c0,0.08-0.026,0.146-0.078,0.198c-0.053,0.052-0.119,0.078-0.198,0.078h-0.528C176.414,59.703,176.348,59.677,176.297,59.625z"/>			<path fill="#77838F" d="M179.488,59.007c-0.42-0.544-0.646-1.231-0.678-2.063l-0.012-0.36l0.012-0.36				c0.031-0.823,0.26-1.51,0.684-2.058s1.052-0.822,1.885-0.822c0.831,0,1.479,0.296,1.943,0.888v-2.771				c0-0.08,0.025-0.146,0.078-0.198c0.052-0.052,0.117-0.078,0.197-0.078h0.541c0.08,0,0.146,0.026,0.197,0.078				c0.053,0.053,0.078,0.118,0.078,0.198v7.968c0,0.08-0.025,0.146-0.078,0.198c-0.052,0.052-0.117,0.078-0.197,0.078h-0.517				c-0.08,0-0.144-0.026-0.192-0.078c-0.047-0.052-0.071-0.118-0.071-0.198v-0.516c-0.456,0.607-1.116,0.912-1.979,0.912				C180.538,59.823,179.908,59.551,179.488,59.007z M182.866,58.329c0.28-0.372,0.433-0.814,0.456-1.326				c0.008-0.088,0.012-0.24,0.012-0.456c0-0.224-0.004-0.38-0.012-0.468c-0.016-0.488-0.17-0.91-0.462-1.267				c-0.292-0.355-0.71-0.533-1.254-0.533c-0.576,0-0.996,0.18-1.261,0.54c-0.264,0.359-0.407,0.832-0.432,1.416l-0.012,0.348				c0,1.536,0.568,2.304,1.704,2.304C182.166,58.887,182.586,58.701,182.866,58.329z"/>			<path fill="#77838F" d="M186.742,59.061c-0.488-0.508-0.756-1.201-0.805-2.082l-0.012-0.407l0.012-0.396				c0.049-0.864,0.316-1.552,0.805-2.063c0.488-0.513,1.141-0.769,1.956-0.769c0.88,0,1.562,0.28,2.046,0.84				c0.484,0.561,0.727,1.32,0.727,2.28v0.216c0,0.08-0.026,0.146-0.078,0.198c-0.053,0.052-0.119,0.078-0.198,0.078h-4.164v0.107				c0.024,0.521,0.184,0.965,0.479,1.332c0.297,0.368,0.688,0.553,1.176,0.553c0.377,0,0.683-0.074,0.918-0.223				c0.236-0.147,0.414-0.302,0.535-0.462c0.071-0.096,0.127-0.153,0.168-0.174c0.039-0.02,0.107-0.03,0.203-0.03h0.528				c0.072,0,0.134,0.021,0.187,0.061c0.051,0.04,0.078,0.092,0.078,0.155c0,0.177-0.108,0.389-0.324,0.637				c-0.217,0.248-0.522,0.462-0.918,0.642c-0.396,0.18-0.851,0.271-1.362,0.271C187.883,59.823,187.23,59.569,186.742,59.061z				 M190.378,56.139v-0.036c0-0.56-0.151-1.016-0.456-1.367c-0.304-0.353-0.712-0.528-1.224-0.528c-0.521,0-0.929,0.176-1.224,0.528				c-0.297,0.352-0.444,0.808-0.444,1.367v0.036H190.378z"/>			<path fill="#77838F" d="M196.113,59.625c-0.047-0.052-0.071-0.118-0.071-0.198v-7.836c0-0.088,0.024-0.158,0.071-0.21				c0.049-0.052,0.112-0.078,0.192-0.078h0.563c0.089,0,0.158,0.026,0.211,0.078c0.052,0.052,0.078,0.122,0.078,0.21v2.988				l3.252-3.084c0.127-0.128,0.283-0.192,0.468-0.192h0.601c0.063,0,0.119,0.024,0.168,0.072c0.047,0.048,0.071,0.104,0.071,0.168				s-0.021,0.116-0.06,0.156l-3.744,3.624l3.996,3.972c0.039,0.048,0.06,0.104,0.06,0.168c0,0.064-0.024,0.12-0.071,0.168				c-0.049,0.048-0.104,0.072-0.168,0.072h-0.625c-0.111,0-0.199-0.019-0.264-0.055c-0.064-0.035-0.132-0.081-0.204-0.138				l-3.479-3.396v3.312c0,0.08-0.028,0.146-0.084,0.198c-0.057,0.052-0.125,0.078-0.205,0.078h-0.563				C196.226,59.703,196.162,59.677,196.113,59.625z"/>			<path fill="#77838F" d="M203.631,59.583c-0.332-0.16-0.596-0.378-0.791-0.654c-0.197-0.275-0.295-0.582-0.295-0.918				c0-0.528,0.217-0.96,0.648-1.296s1.02-0.56,1.764-0.672l1.801-0.252v-0.348c0-0.824-0.477-1.236-1.428-1.236				c-0.369,0-0.665,0.074-0.889,0.222c-0.225,0.148-0.389,0.322-0.492,0.522c-0.031,0.08-0.066,0.134-0.102,0.162				c-0.036,0.027-0.086,0.042-0.15,0.042h-0.468c-0.072,0-0.134-0.026-0.187-0.078c-0.052-0.052-0.078-0.114-0.078-0.187				c0-0.184,0.086-0.397,0.258-0.642c0.173-0.244,0.438-0.456,0.799-0.636c0.359-0.181,0.8-0.271,1.32-0.271				c0.896,0,1.537,0.208,1.926,0.624c0.388,0.416,0.582,0.937,0.582,1.561v3.899c0,0.08-0.026,0.146-0.078,0.198				c-0.053,0.052-0.118,0.078-0.198,0.078h-0.528c-0.08,0-0.144-0.026-0.191-0.078c-0.049-0.052-0.072-0.118-0.072-0.198v-0.528				c-0.176,0.265-0.432,0.484-0.768,0.66s-0.769,0.265-1.297,0.265C204.325,59.823,203.963,59.743,203.631,59.583z M206.254,58.431				c0.336-0.344,0.504-0.844,0.504-1.5v-0.336l-1.404,0.204c-0.576,0.08-1.012,0.216-1.309,0.408				c-0.295,0.191-0.443,0.432-0.443,0.72c0,0.328,0.134,0.58,0.402,0.756c0.268,0.177,0.586,0.265,0.953,0.265				C205.485,58.947,205.918,58.775,206.254,58.431z"/>			<path fill="#77838F" d="M209.979,59.007c-0.42-0.544-0.646-1.231-0.679-2.063l-0.012-0.36l0.012-0.36				c0.033-0.823,0.261-1.51,0.685-2.058s1.052-0.822,1.884-0.822s1.48,0.296,1.944,0.888v-2.771c0-0.08,0.026-0.146,0.078-0.198				c0.052-0.052,0.118-0.078,0.198-0.078h0.539c0.08,0,0.146,0.026,0.199,0.078c0.051,0.053,0.077,0.118,0.077,0.198v7.968				c0,0.08-0.026,0.146-0.077,0.198c-0.053,0.052-0.119,0.078-0.199,0.078h-0.516c-0.08,0-0.145-0.026-0.191-0.078				c-0.049-0.052-0.072-0.118-0.072-0.198v-0.516c-0.456,0.607-1.116,0.912-1.98,0.912				C211.029,59.823,210.399,59.551,209.979,59.007z M213.357,58.329c0.279-0.372,0.432-0.814,0.456-1.326				c0.008-0.088,0.013-0.24,0.013-0.456c0-0.224-0.005-0.38-0.013-0.468c-0.017-0.488-0.17-0.91-0.462-1.267				c-0.292-0.355-0.71-0.533-1.254-0.533c-0.576,0-0.996,0.18-1.26,0.54c-0.265,0.359-0.408,0.832-0.433,1.416l-0.012,0.348				c0,1.536,0.567,2.304,1.704,2.304C212.657,58.887,213.077,58.701,213.357,58.329z"/>			<path fill="#77838F" d="M216.795,59.625c-0.052-0.052-0.078-0.118-0.078-0.198v-5.688c0-0.08,0.026-0.146,0.078-0.198				c0.053-0.052,0.118-0.078,0.198-0.078h0.528c0.08,0,0.146,0.026,0.197,0.078c0.053,0.052,0.078,0.118,0.078,0.198v5.688				c0,0.08-0.025,0.146-0.078,0.198c-0.051,0.052-0.117,0.078-0.197,0.078h-0.528C216.913,59.703,216.848,59.677,216.795,59.625z"/>			<path fill="#77838F" d="M219.676,59.625c-0.053-0.052-0.078-0.118-0.078-0.198v-5.688c0-0.08,0.025-0.146,0.078-0.198				c0.051-0.052,0.117-0.078,0.197-0.078h0.516c0.088,0,0.156,0.024,0.205,0.072c0.047,0.048,0.071,0.116,0.071,0.204v0.527				c0.24-0.296,0.519-0.523,0.834-0.684c0.316-0.16,0.71-0.24,1.183-0.24c0.768,0,1.363,0.246,1.787,0.738s0.637,1.142,0.637,1.95				v3.396c0,0.08-0.026,0.146-0.078,0.198c-0.053,0.052-0.118,0.078-0.198,0.078h-0.552c-0.08,0-0.146-0.026-0.198-0.078				s-0.077-0.118-0.077-0.198v-3.324c0-0.575-0.141-1.023-0.421-1.344c-0.28-0.319-0.68-0.479-1.2-0.479				c-0.512,0-0.92,0.161-1.224,0.485s-0.456,0.771-0.456,1.338v3.324c0,0.08-0.025,0.146-0.078,0.198				c-0.052,0.052-0.117,0.078-0.197,0.078h-0.553C219.793,59.703,219.727,59.677,219.676,59.625z"/>			<path fill="#77838F" d="M230.025,59.625c-0.049-0.052-0.072-0.118-0.072-0.198v-7.836c0-0.088,0.023-0.158,0.072-0.21				c0.047-0.052,0.111-0.078,0.191-0.078h2.713c1.207,0,2.079,0.271,2.615,0.811s0.813,1.354,0.828,2.441				c0.008,0.232,0.012,0.544,0.012,0.937c0,0.392-0.004,0.708-0.012,0.947c-0.016,0.761-0.139,1.379-0.366,1.854				s-0.586,0.83-1.073,1.062c-0.488,0.232-1.137,0.349-1.945,0.349h-2.771C230.137,59.703,230.072,59.677,230.025,59.625z				 M232.93,58.707c0.559,0,1.006-0.078,1.338-0.234c0.331-0.156,0.571-0.399,0.719-0.731c0.148-0.332,0.23-0.782,0.246-1.351				c0.017-0.479,0.024-0.779,0.024-0.899c0-0.128-0.008-0.424-0.024-0.889c-0.016-0.8-0.205-1.386-0.569-1.758				s-0.962-0.558-1.794-0.558h-1.788v6.42H232.93z"/>			<path fill="#77838F" d="M238.568,59.061c-0.488-0.508-0.756-1.201-0.804-2.082l-0.012-0.407l0.012-0.396				c0.048-0.864,0.315-1.552,0.804-2.063c0.488-0.513,1.141-0.769,1.957-0.769c0.879,0,1.562,0.28,2.045,0.84				c0.484,0.561,0.727,1.32,0.727,2.28v0.216c0,0.08-0.025,0.146-0.078,0.198s-0.118,0.078-0.197,0.078h-4.164v0.107				c0.023,0.521,0.184,0.965,0.479,1.332c0.296,0.368,0.688,0.553,1.176,0.553c0.376,0,0.683-0.074,0.918-0.223				c0.235-0.147,0.414-0.302,0.534-0.462c0.072-0.096,0.128-0.153,0.168-0.174c0.04-0.02,0.107-0.03,0.204-0.03h0.528				c0.072,0,0.133,0.021,0.186,0.061c0.052,0.04,0.078,0.092,0.078,0.155c0,0.177-0.107,0.389-0.324,0.637				c-0.216,0.248-0.521,0.462-0.918,0.642s-0.85,0.271-1.361,0.271C239.709,59.823,239.057,59.569,238.568,59.061z M242.205,56.139				v-0.036c0-0.56-0.152-1.016-0.456-1.367c-0.304-0.353-0.712-0.528-1.224-0.528c-0.521,0-0.929,0.176-1.225,0.528				c-0.296,0.352-0.443,0.808-0.443,1.367v0.036H242.205z"/>			<path fill="#77838F" d="M244.839,59.625c-0.052-0.052-0.078-0.118-0.078-0.198v-5.676c0-0.08,0.026-0.148,0.078-0.204				s0.118-0.084,0.198-0.084h0.504c0.088,0,0.158,0.026,0.21,0.078s0.077,0.122,0.077,0.21v0.528				c0.328-0.544,0.885-0.816,1.669-0.816h0.468c0.088,0,0.156,0.024,0.204,0.072s0.071,0.116,0.071,0.204v0.443				c0,0.08-0.023,0.146-0.071,0.198s-0.116,0.078-0.204,0.078h-0.684c-0.44,0-0.787,0.128-1.039,0.384s-0.377,0.604-0.377,1.044				v3.54c0,0.08-0.028,0.146-0.084,0.198c-0.057,0.052-0.125,0.078-0.205,0.078h-0.539				C244.957,59.703,244.891,59.677,244.839,59.625z"/>			<path fill="#77838F" d="M249.351,59.625c-0.052-0.052-0.078-0.118-0.078-0.198v-5.688c0-0.08,0.026-0.146,0.078-0.198				s0.118-0.078,0.198-0.078h0.516c0.088,0,0.156,0.024,0.204,0.072s0.071,0.116,0.071,0.204v0.527				c0.24-0.296,0.519-0.523,0.834-0.684c0.316-0.16,0.711-0.24,1.183-0.24c0.769,0,1.364,0.246,1.788,0.738s0.637,1.142,0.637,1.95				v3.396c0,0.08-0.027,0.146-0.078,0.198c-0.053,0.052-0.119,0.078-0.199,0.078h-0.551c-0.08,0-0.146-0.026-0.199-0.078				c-0.051-0.052-0.077-0.118-0.077-0.198v-3.324c0-0.575-0.14-1.023-0.421-1.344c-0.279-0.319-0.68-0.479-1.199-0.479				c-0.512,0-0.92,0.161-1.225,0.485c-0.304,0.324-0.455,0.771-0.455,1.338v3.324c0,0.08-0.026,0.146-0.078,0.198				c-0.053,0.052-0.118,0.078-0.198,0.078h-0.552C249.469,59.703,249.402,59.677,249.351,59.625z"/>			<path fill="#77838F" d="M257.037,59.061c-0.488-0.508-0.756-1.201-0.805-2.082l-0.012-0.407l0.012-0.396				c0.049-0.864,0.316-1.552,0.805-2.063c0.487-0.513,1.14-0.769,1.955-0.769c0.881,0,1.563,0.28,2.047,0.84				c0.483,0.561,0.726,1.32,0.726,2.28v0.216c0,0.08-0.026,0.146-0.078,0.198s-0.118,0.078-0.198,0.078h-4.164v0.107				c0.024,0.521,0.184,0.965,0.48,1.332c0.296,0.368,0.688,0.553,1.176,0.553c0.376,0,0.682-0.074,0.918-0.223				c0.236-0.147,0.414-0.302,0.534-0.462c0.071-0.096,0.128-0.153,0.168-0.174c0.04-0.02,0.108-0.03,0.204-0.03h0.527				c0.072,0,0.135,0.021,0.187,0.061s0.078,0.092,0.078,0.155c0,0.177-0.108,0.389-0.324,0.637s-0.522,0.462-0.918,0.642				s-0.851,0.271-1.362,0.271C258.177,59.823,257.524,59.569,257.037,59.061z M260.672,56.139v-0.036				c0-0.56-0.151-1.016-0.455-1.367c-0.305-0.353-0.713-0.528-1.225-0.528c-0.52,0-0.928,0.176-1.224,0.528				c-0.296,0.352-0.444,0.808-0.444,1.367v0.036H260.672z"/>			<path fill="#77838F" d="M264.164,62.007c-0.399-0.224-0.682-0.479-0.846-0.768s-0.246-0.536-0.246-0.744				c0-0.072,0.028-0.135,0.084-0.187c0.057-0.052,0.121-0.078,0.192-0.078h0.528c0.072,0,0.132,0.019,0.18,0.055				s0.088,0.102,0.12,0.197c0.224,0.641,0.731,0.961,1.524,0.961c0.6,0,1.043-0.129,1.332-0.385				c0.287-0.256,0.432-0.708,0.432-1.355v-0.828c-0.465,0.592-1.112,0.888-1.944,0.888c-0.849,0-1.481-0.271-1.901-0.815				s-0.643-1.232-0.666-2.064l-0.013-0.336l0.013-0.324c0.023-0.823,0.246-1.51,0.666-2.058s1.053-0.822,1.901-0.822				c0.841,0,1.496,0.309,1.968,0.924v-0.516c0-0.08,0.026-0.148,0.078-0.204c0.053-0.056,0.118-0.084,0.198-0.084h0.517				c0.079,0,0.145,0.028,0.197,0.084s0.078,0.124,0.078,0.204v5.82c0,1.848-0.932,2.771-2.796,2.771				C265.097,62.343,264.564,62.23,264.164,62.007z M267.002,58.281c0.285-0.364,0.438-0.803,0.463-1.314				c0.008-0.072,0.012-0.212,0.012-0.42c0-0.2-0.004-0.336-0.012-0.408c-0.024-0.512-0.178-0.949-0.463-1.313				c-0.283-0.364-0.705-0.546-1.266-0.546c-0.576,0-0.994,0.182-1.254,0.546s-0.402,0.834-0.426,1.41l-0.012,0.312l0.012,0.324				c0.023,0.576,0.166,1.046,0.426,1.41c0.26,0.363,0.678,0.546,1.254,0.546C266.297,58.827,266.719,58.645,267.002,58.281z				 M264.65,52.203c-0.228-0.28-0.342-0.632-0.342-1.057c0-0.063,0.02-0.117,0.061-0.161c0.039-0.044,0.096-0.066,0.168-0.066h0.336				c0.072,0,0.127,0.022,0.168,0.066c0.039,0.044,0.06,0.098,0.06,0.161c0,0.513,0.216,0.769,0.647,0.769				c0.433,0,0.648-0.256,0.648-0.769c0-0.063,0.02-0.117,0.061-0.161c0.039-0.044,0.096-0.066,0.168-0.066h0.348				c0.072,0,0.128,0.022,0.168,0.066s0.061,0.098,0.061,0.161c0,0.425-0.115,0.776-0.343,1.057s-0.599,0.42-1.11,0.42				C265.244,52.623,264.879,52.483,264.65,52.203z"/>			<path fill="#77838F" d="M270.35,52.209c-0.051-0.052-0.077-0.118-0.077-0.198v-0.624c0-0.08,0.026-0.147,0.077-0.204				c0.053-0.056,0.119-0.084,0.199-0.084h0.707c0.08,0,0.148,0.028,0.205,0.084c0.055,0.057,0.084,0.124,0.084,0.204v0.624				c0,0.08-0.029,0.146-0.084,0.198c-0.057,0.052-0.125,0.078-0.205,0.078h-0.707C270.469,52.287,270.402,52.261,270.35,52.209z				 M270.446,59.625c-0.052-0.052-0.078-0.118-0.078-0.198v-5.688c0-0.08,0.026-0.146,0.078-0.198s0.118-0.078,0.198-0.078h0.527				c0.08,0,0.146,0.026,0.198,0.078s0.078,0.118,0.078,0.198v5.688c0,0.08-0.026,0.146-0.078,0.198s-0.118,0.078-0.198,0.078h-0.527				C270.564,59.703,270.498,59.677,270.446,59.625z"/>		</g>		<g>			<path fill="#1E2022" d="M117.668,16.932L115.19,3.471l-0.021-0.168c0-0.126,0.042-0.231,0.126-0.315s0.189-0.126,0.315-0.126				h1.89c0.182,0,0.315,0.032,0.399,0.095s0.14,0.171,0.168,0.326l1.743,9.45l1.869-6.09c0.14-0.35,0.371-0.525,0.693-0.525h1.155				c0.182,0,0.329,0.052,0.441,0.157c0.112,0.105,0.189,0.228,0.231,0.368l1.89,6.09l1.722-9.45c0.042-0.28,0.238-0.42,0.588-0.42				h1.89c0.112,0,0.21,0.042,0.294,0.126s0.126,0.189,0.126,0.315c0,0.07-0.007,0.126-0.021,0.168l-2.478,13.461				c-0.028,0.196-0.108,0.35-0.241,0.462c-0.133,0.112-0.305,0.168-0.515,0.168h-1.428c-0.196,0-0.357-0.053-0.483-0.158				s-0.21-0.227-0.252-0.367l-2.352-6.972l-2.352,6.972c-0.112,0.35-0.357,0.525-0.735,0.525h-1.428				C118.018,17.562,117.766,17.352,117.668,16.932z"/>			<path fill="#1E2022" d="M134.972,16.564c-0.644-0.665-0.966-1.641-0.966-2.929V8.889h-1.659c-0.14,0-0.259-0.049-0.357-0.147				c-0.098-0.098-0.147-0.217-0.147-0.357V7.146c0-0.14,0.049-0.259,0.147-0.357c0.098-0.098,0.217-0.147,0.357-0.147h1.659V3.156				c0-0.154,0.049-0.276,0.147-0.368c0.098-0.091,0.217-0.137,0.357-0.137h1.743c0.154,0,0.276,0.046,0.367,0.137				c0.091,0.091,0.137,0.213,0.137,0.368v3.486h2.625c0.14,0,0.259,0.049,0.357,0.147c0.098,0.098,0.146,0.217,0.146,0.357v1.239				c0,0.14-0.049,0.259-0.146,0.357c-0.099,0.098-0.218,0.147-0.357,0.147h-2.625v4.515c0,0.603,0.105,1.058,0.315,1.365				c0.21,0.308,0.553,0.462,1.029,0.462h1.47c0.153,0,0.276,0.046,0.367,0.137s0.137,0.213,0.137,0.367v1.323				c0,0.14-0.046,0.259-0.137,0.357c-0.091,0.098-0.214,0.147-0.367,0.147h-1.723C136.575,17.562,135.616,17.229,134.972,16.564z"/>			<path fill="#1E2022" d="M142.941,16.428c-0.917-0.896-1.403-2.17-1.459-3.822l-0.021-0.525c0-1.75,0.459-3.129,1.376-4.137				c0.917-1.008,2.188-1.512,3.812-1.512c1.666,0,2.95,0.504,3.854,1.512c0.903,1.008,1.354,2.352,1.354,4.032v0.441				c0,0.14-0.049,0.259-0.147,0.357c-0.098,0.098-0.224,0.147-0.378,0.147h-6.972v0.168c0.028,0.784,0.241,1.432,0.641,1.943				c0.398,0.511,0.948,0.766,1.648,0.766c0.798,0,1.449-0.322,1.953-0.966c0.126-0.154,0.224-0.249,0.294-0.284				c0.069-0.035,0.188-0.052,0.356-0.052h1.849c0.126,0,0.234,0.035,0.325,0.105c0.091,0.07,0.137,0.168,0.137,0.294				c0,0.336-0.199,0.732-0.599,1.187c-0.399,0.455-0.97,0.851-1.712,1.187s-1.603,0.504-2.583,0.504				C145.102,17.772,143.858,17.324,142.941,16.428z M148.958,11.136v-0.042c0-0.826-0.206-1.488-0.619-1.985				c-0.413-0.497-0.977-0.746-1.69-0.746s-1.274,0.249-1.68,0.746c-0.406,0.497-0.609,1.159-0.609,1.985v0.042H148.958z"/>			<path fill="#1E2022" d="M155.121,16.491c-0.917-0.854-1.403-2.037-1.459-3.549l-0.021-0.84l0.021-0.84				c0.056-1.512,0.542-2.695,1.459-3.549c0.917-0.854,2.146-1.281,3.686-1.281c1.106,0,2.041,0.196,2.804,0.588				c0.763,0.392,1.33,0.872,1.701,1.438s0.57,1.11,0.599,1.627c0.014,0.14-0.031,0.259-0.137,0.357				c-0.104,0.098-0.228,0.147-0.367,0.147h-1.869c-0.154,0-0.267-0.031-0.336-0.094c-0.07-0.063-0.141-0.179-0.21-0.347				c-0.21-0.532-0.486-0.917-0.83-1.155c-0.343-0.238-0.78-0.357-1.313-0.357c-0.714,0-1.271,0.224-1.669,0.672				c-0.399,0.448-0.612,1.134-0.641,2.058l-0.021,0.777l0.021,0.693c0.084,1.82,0.854,2.73,2.31,2.73				c0.547,0,0.987-0.115,1.323-0.346s0.609-0.62,0.819-1.166c0.056-0.154,0.122-0.266,0.199-0.336				c0.077-0.07,0.192-0.105,0.347-0.105h1.869c0.14,0,0.263,0.049,0.367,0.147c0.105,0.098,0.15,0.217,0.137,0.357				c-0.028,0.49-0.225,1.019-0.588,1.585c-0.364,0.567-0.924,1.054-1.681,1.459c-0.756,0.406-1.7,0.609-2.835,0.609				C157.267,17.772,156.038,17.345,155.121,16.491z"/>			<path fill="#1E2022" d="M166.262,17.415c-0.098-0.098-0.146-0.217-0.146-0.357V3.156c0-0.154,0.049-0.276,0.146-0.368				c0.098-0.091,0.217-0.137,0.357-0.137h1.91c0.154,0,0.276,0.046,0.368,0.137c0.091,0.091,0.137,0.213,0.137,0.368v4.788				c0.84-1.008,1.967-1.512,3.381-1.512c1.288,0,2.316,0.423,3.087,1.271c0.77,0.847,1.155,1.999,1.155,3.455v5.901				c0,0.14-0.046,0.259-0.137,0.357c-0.092,0.098-0.214,0.147-0.368,0.147h-1.91c-0.154,0-0.28-0.049-0.379-0.147				c-0.098-0.098-0.146-0.217-0.146-0.357v-5.775c0-0.812-0.199-1.446-0.599-1.901c-0.398-0.455-0.97-0.682-1.711-0.682				c-0.715,0-1.289,0.231-1.723,0.693s-0.65,1.092-0.65,1.89v5.775c0,0.14-0.046,0.259-0.137,0.357				c-0.092,0.098-0.214,0.147-0.368,0.147h-1.91C166.479,17.562,166.359,17.513,166.262,17.415z"/>			<path fill="#1E2022" d="M116.156,42.615c-0.098-0.098-0.147-0.217-0.147-0.357v-13.67c0-0.154,0.045-0.28,0.136-0.378				c0.091-0.098,0.213-0.147,0.368-0.147h5.628c1.694,0,3.024,0.399,3.99,1.197c0.966,0.798,1.449,1.96,1.449,3.486				c0,1.512-0.483,2.656-1.449,3.434c-0.966,0.776-2.296,1.165-3.99,1.165h-3.087v4.914c0,0.154-0.049,0.276-0.147,0.367				c-0.098,0.092-0.224,0.137-0.378,0.137h-2.016C116.373,42.762,116.254,42.713,116.156,42.615z M122.036,34.992				c0.812,0,1.431-0.192,1.858-0.578c0.427-0.385,0.641-0.948,0.641-1.69c0-0.727-0.207-1.294-0.62-1.7				c-0.413-0.406-1.04-0.609-1.879-0.609h-3.024v4.578H122.036z"/>			<path fill="#1E2022" d="M129.785,42.615c-0.098-0.098-0.147-0.217-0.147-0.357V28.356c0-0.154,0.049-0.276,0.147-0.368				c0.098-0.091,0.217-0.137,0.357-0.137h1.764c0.154,0,0.276,0.046,0.368,0.137c0.091,0.091,0.137,0.213,0.137,0.368v13.901				c0,0.141-0.046,0.26-0.137,0.357c-0.091,0.098-0.213,0.146-0.368,0.146h-1.764C130.002,42.762,129.883,42.713,129.785,42.615z"/>			<path fill="#1E2022" d="M136.41,42.541c-0.595-0.286-1.064-0.675-1.407-1.165c-0.343-0.49-0.515-1.029-0.515-1.617				c0-0.952,0.385-1.722,1.155-2.31c0.77-0.588,1.827-0.987,3.171-1.197l2.877-0.42v-0.441c0-0.602-0.154-1.057-0.462-1.364				c-0.309-0.309-0.798-0.463-1.471-0.463c-0.462,0-0.833,0.085-1.112,0.253c-0.28,0.168-0.508,0.339-0.683,0.514				c-0.176,0.176-0.291,0.291-0.347,0.347c-0.056,0.168-0.161,0.252-0.315,0.252h-1.638c-0.126,0-0.235-0.042-0.326-0.126				c-0.091-0.084-0.136-0.195-0.136-0.336c0.014-0.35,0.185-0.745,0.514-1.187c0.329-0.44,0.836-0.826,1.523-1.155				c0.686-0.329,1.533-0.493,2.541-0.493c1.651,0,2.855,0.371,3.612,1.113c0.756,0.742,1.134,1.715,1.134,2.919v6.594				c0,0.141-0.046,0.26-0.137,0.357s-0.214,0.146-0.367,0.146h-1.743c-0.141,0-0.26-0.049-0.357-0.146s-0.146-0.217-0.146-0.357				v-0.819c-0.309,0.448-0.742,0.816-1.302,1.103c-0.561,0.287-1.261,0.431-2.101,0.431C137.66,42.972,137.006,42.828,136.41,42.541				z M140.979,40.2c0.489-0.504,0.734-1.232,0.734-2.185v-0.42l-2.1,0.336c-1.61,0.252-2.415,0.791-2.415,1.617				c0,0.448,0.186,0.795,0.557,1.04c0.37,0.245,0.815,0.367,1.333,0.367C139.858,40.956,140.488,40.704,140.979,40.2z"/>			<path fill="#1E2022" d="M149.21,41.765c-0.645-0.665-0.966-1.642-0.966-2.93v-4.746h-1.659c-0.141,0-0.26-0.049-0.357-0.146				c-0.098-0.099-0.146-0.218-0.146-0.357v-1.239c0-0.14,0.049-0.259,0.146-0.357c0.098-0.098,0.217-0.147,0.357-0.147h1.659v-3.486				c0-0.154,0.049-0.276,0.146-0.368c0.098-0.091,0.217-0.137,0.357-0.137h1.743c0.153,0,0.276,0.046,0.367,0.137				c0.091,0.091,0.137,0.213,0.137,0.368v3.486h2.625c0.14,0,0.259,0.049,0.356,0.147c0.098,0.098,0.147,0.217,0.147,0.357v1.239				c0,0.14-0.05,0.259-0.147,0.357c-0.098,0.098-0.217,0.146-0.356,0.146h-2.625v4.515c0,0.603,0.104,1.058,0.314,1.365				c0.21,0.309,0.553,0.462,1.029,0.462h1.47c0.154,0,0.276,0.046,0.368,0.137c0.091,0.091,0.136,0.214,0.136,0.367v1.323				c0,0.141-0.045,0.26-0.136,0.357c-0.092,0.098-0.214,0.146-0.368,0.146h-1.722C150.813,42.762,149.854,42.43,149.21,41.765z"/>			<path fill="#1E2022" d="M157.505,42.615c-0.099-0.098-0.147-0.217-0.147-0.357v-8.169h-1.701c-0.14,0-0.259-0.049-0.356-0.146				c-0.099-0.099-0.147-0.218-0.147-0.357v-1.239c0-0.14,0.049-0.259,0.147-0.357c0.098-0.098,0.217-0.147,0.356-0.147h1.701v-0.84				c0-1.274,0.343-2.223,1.029-2.846c0.686-0.623,1.722-0.935,3.108-0.935h1.448c0.14,0,0.259,0.049,0.357,0.147				c0.098,0.098,0.146,0.217,0.146,0.357v1.239c0,0.14-0.049,0.259-0.146,0.357c-0.099,0.098-0.218,0.147-0.357,0.147H161.6				c-0.546,0-0.932,0.133-1.155,0.399c-0.224,0.266-0.336,0.679-0.336,1.239v0.735h2.625c0.14,0,0.259,0.049,0.357,0.147				c0.098,0.098,0.146,0.217,0.146,0.357v1.239c0,0.14-0.049,0.259-0.146,0.357c-0.099,0.098-0.218,0.146-0.357,0.146h-2.625v8.169				c0,0.141-0.045,0.26-0.137,0.357c-0.091,0.098-0.213,0.146-0.367,0.146h-1.743C157.722,42.762,157.603,42.713,157.505,42.615z"/>			<path fill="#1E2022" d="M165.778,41.712c-0.896-0.84-1.379-2.002-1.449-3.486l-0.021-0.924l0.021-0.924				c0.07-1.47,0.561-2.628,1.471-3.476c0.909-0.847,2.177-1.27,3.801-1.27c1.609,0,2.87,0.423,3.78,1.27				c0.909,0.848,1.399,2.006,1.47,3.476c0.014,0.168,0.021,0.477,0.021,0.924c0,0.448-0.007,0.756-0.021,0.924				c-0.07,1.484-0.554,2.646-1.449,3.486s-2.163,1.26-3.801,1.26C167.948,42.972,166.674,42.552,165.778,41.712z M171.313,40.158				c0.398-0.462,0.611-1.142,0.64-2.037c0.014-0.14,0.021-0.413,0.021-0.819c0-0.405-0.008-0.679-0.021-0.818				c-0.028-0.896-0.245-1.579-0.65-2.048c-0.406-0.469-0.974-0.703-1.701-0.703c-0.742,0-1.316,0.234-1.722,0.703				c-0.406,0.469-0.623,1.151-0.651,2.048l-0.021,0.818l0.021,0.819c0.028,0.896,0.245,1.575,0.651,2.037				c0.405,0.462,0.979,0.692,1.722,0.692S170.913,40.62,171.313,40.158z"/>			<path fill="#1E2022" d="M177.35,42.615c-0.099-0.098-0.147-0.217-0.147-0.357v-9.891c0-0.154,0.049-0.28,0.147-0.378				c0.098-0.098,0.217-0.147,0.356-0.147h1.722c0.154,0,0.28,0.049,0.379,0.147c0.098,0.098,0.146,0.224,0.146,0.378v0.86				c0.7-0.923,1.708-1.385,3.024-1.385h0.882c0.153,0,0.276,0.045,0.367,0.136c0.091,0.091,0.137,0.214,0.137,0.368v1.533				c0,0.141-0.046,0.259-0.137,0.357c-0.091,0.098-0.214,0.146-0.367,0.146H182.2c-0.658,0-1.176,0.189-1.554,0.567				s-0.567,0.896-0.567,1.554v5.754c0,0.141-0.049,0.26-0.146,0.357c-0.099,0.098-0.218,0.146-0.357,0.146h-1.869				C177.566,42.762,177.447,42.713,177.35,42.615z"/>			<path fill="#1E2022" d="M186.148,42.615c-0.099-0.098-0.147-0.217-0.147-0.357v-9.912c0-0.154,0.049-0.276,0.147-0.368				c0.098-0.091,0.217-0.136,0.356-0.136h1.659c0.154,0,0.276,0.045,0.367,0.136c0.091,0.091,0.137,0.214,0.137,0.368v0.713				c0.756-0.951,1.771-1.427,3.045-1.427c1.554,0,2.639,0.623,3.255,1.869c0.336-0.56,0.812-1.011,1.428-1.354				c0.616-0.343,1.281-0.514,1.995-0.514c1.148,0,2.086,0.392,2.814,1.175c0.728,0.784,1.092,1.926,1.092,3.424v6.026				c0,0.141-0.046,0.26-0.137,0.357s-0.213,0.146-0.367,0.146h-1.743c-0.14,0-0.259-0.049-0.356-0.146				c-0.099-0.098-0.147-0.217-0.147-0.357v-5.858c0-0.883-0.186-1.52-0.557-1.911c-0.371-0.393-0.857-0.588-1.459-0.588				c-0.546,0-1.012,0.199-1.396,0.598c-0.386,0.399-0.578,1.033-0.578,1.901v5.858c0,0.141-0.045,0.26-0.136,0.357				c-0.092,0.098-0.214,0.146-0.368,0.146h-1.764c-0.141,0-0.26-0.049-0.357-0.146s-0.146-0.217-0.146-0.357v-5.858				c0-0.868-0.189-1.502-0.567-1.901c-0.378-0.398-0.86-0.598-1.449-0.598c-0.546,0-1.011,0.199-1.396,0.598				c-0.385,0.399-0.577,1.033-0.577,1.901v5.858c0,0.141-0.046,0.26-0.137,0.357s-0.213,0.146-0.367,0.146h-1.785				C186.365,42.762,186.246,42.713,186.148,42.615z"/>		</g>	</g>	<g>		<g>			<g>				<g>					<linearGradient id="SVGID_1_" gradientUnits="userSpaceOnUse" x1="71.3825" y1="43.042" x2="99.646" y2="-4.7519">						<stop  offset="0" style="stop-color:#2B3990"/>						<stop  offset="0.2108" style="stop-color:#1C75BC"/>						<stop  offset="0.6615" style="stop-color:#27AAE1"/>						<stop  offset="1" style="stop-color:#00AEEF"/>					</linearGradient>					<path fill-rule="evenodd" fill="url(#SVGID_1_)" d="M72.614,31.89c2.033,2.908,5.408,4.816,9.218,4.816						c3.484,0,6.587-1.581,8.638-4.054l14.863-25.754c-10.58-6.125-24.227-2.453-30.324,8.125l-6.061,10.505L72.614,31.89z"/>					<linearGradient id="SVGID_2_" gradientUnits="userSpaceOnUse" x1="82.0158" y1="61.1838" x2="28.3463" y2="22.5465">						<stop  offset="0" style="stop-color:#2B3990"/>						<stop  offset="0.1567" style="stop-color:#1C75BC"/>						<stop  offset="0.6615" style="stop-color:#27AAE1"/>						<stop  offset="1" style="stop-color:#00AEEF"/>					</linearGradient>					<path fill-rule="evenodd" fill="url(#SVGID_2_)" d="M81.832,36.706c-3.811,0-7.186-1.909-9.218-4.816l-3.666-6.362L60.8,11.388						L59.711,9.48c-1.452-2.508-3.738-4.235-6.314-5.034c-1.071-0.346-2.178-0.509-3.285-0.509h-0.018h-0.037						c-1.089,0-2.196,0.163-3.285,0.509c-2.559,0.8-4.864,2.526-6.297,5.034l-1.089,1.908l-8.166,14.141l-3.666,6.362						c-2.033,2.908-5.408,4.816-9.218,4.816c-3.466,0-6.587-1.581-8.638-4.054l8.711,15.104l0.072,0.146l3.14,5.452						c3.067,5.289,9.872,7.126,15.171,4.054c1.506-0.873,2.74-2.054,3.647-3.417l0.726-1.272l8.929-15.467l8.91,15.467l0.726,1.272						c0.926,1.364,2.142,2.544,3.665,3.417c5.281,3.072,12.105,1.236,15.153-4.054l3.14-5.452l0.072-0.146l8.711-15.104						C88.42,35.125,85.317,36.706,81.832,36.706L81.832,36.706z"/>					<linearGradient id="SVGID_3_" gradientUnits="userSpaceOnUse" x1="21.8242" y1="24.4398" x2="2.0554" y2="4.6711">						<stop  offset="0.6615" style="stop-color:#27AAE1"/>						<stop  offset="1" style="stop-color:#00AEEF"/>					</linearGradient>					<path fill-rule="evenodd" fill="url(#SVGID_3_)" d="M12.312,3.936c6.042,0,10.978,4.944,10.978,10.996						c0,6.052-4.936,10.979-10.978,10.979c-6.043,0-10.979-4.926-10.979-10.979C1.333,8.88,6.269,3.936,12.312,3.936L12.312,3.936z"						/>				</g>			</g>		</g>	</g></g><g></g><g></g><g></g><g></g><g></g><g></g><g></g><g></g><g></g><g></g><g></g><g></g><g></g><g></g><g></g></svg>